<svg viewBox="0 0 512 512" width="20" height="20" xmlns="http://www.w3.org/2000/svg" class="svg-inline--fa fa-flag fa-w-16 fa-7x">

 <g>
  <title>background</title>
  <rect fill="none" id="canvas_background" height="402" width="582" y="-1" x="-1"/>
 </g>
 <g>
  <title>Layer 1</title>
  <rect id="svg_2" height="292" width="433" y="83.453125" x="47.5" stroke-opacity="null" stroke-width="null" stroke="null" fill="#ffffff"/>
  <path id="svg_1" d="m335.174,80c-49.132,0 -93.305,-32 -161.913,-32c-31.301,0 -58.303,6.482 -80.721,15.168a48.04,48.04 0 0 0 2.142,-20.727c-2.615,-22.866 -21.515,-40.847 -44.481,-42.337c-27.959,-1.814 -51.201,20.327 -51.201,47.896c0,17.764 9.657,33.262 24,41.562l0,406.438c0,8.837 7.163,16 16,16l16,0c8.837,0 16,-7.163 16,-16l0,-83.443c37.869,-17.277 71.259,-28.557 127.826,-28.557c49.132,0 93.305,32 161.913,32c58.479,0 101.972,-22.617 128.548,-39.981c13.559,-8.858 21.713,-23.968 21.713,-40.164l0,-239.918c0,-34.459 -35.264,-57.768 -66.904,-44.117c-35.903,15.489 -73.455,28.18 -108.922,28.18zm127.826,256c-21.783,15.412 -60.824,32 -102.261,32c-59.945,0 -102.002,-32 -161.913,-32c-43.361,0 -96.379,9.403 -127.826,24l0,-232c21.784,-15.412 60.824,-32 102.261,-32c59.945,0 102.002,32 161.913,32c43.271,0 96.32,-17.366 127.826,-32l0,240z" fill="#0081ff"/>
 </g>
</svg>
